<svg width="28" height="28" viewBox="0 0 28 28" fill="none" xmlns="http://www.w3.org/2000/svg">
<path d="M8.47368 0C3.80137 0 0 3.80137 0 8.47368V19.5263C0 24.1986 3.80137 28 8.47368 28H19.5263C24.1986 28 28 24.1986 28 19.5263V8.47368C28 3.80137 24.1986 0 19.5263 0H8.47368ZM21.3684 5.15789C22.1826 5.15789 22.8421 5.81737 22.8421 6.63158C22.8421 7.44505 22.1826 8.10526 21.3684 8.10526C20.5542 8.10526 19.8947 7.44505 19.8947 6.63158C19.8947 5.81737 20.5542 5.15789 21.3684 5.15789ZM14 6.63158C18.0629 6.63158 21.3684 9.93705 21.3684 14C21.3684 18.0629 18.0629 21.3684 14 21.3684C9.93705 21.3684 6.63158 18.0629 6.63158 14C6.63158 9.93705 9.93705 6.63158 14 6.63158ZM14 8.8421C13.3227 8.8421 12.6519 8.97552 12.0262 9.23473C11.4004 9.49393 10.8318 9.87386 10.3528 10.3528C9.87386 10.8318 9.49393 11.4004 9.23473 12.0262C8.97552 12.6519 8.8421 13.3227 8.8421 14C8.8421 14.6773 8.97552 15.3481 9.23473 15.9738C9.49393 16.5996 9.87386 17.1682 10.3528 17.6472C10.8318 18.1261 11.4004 18.5061 12.0262 18.7653C12.6519 19.0245 13.3227 19.1579 14 19.1579C14.6773 19.1579 15.3481 19.0245 15.9738 18.7653C16.5996 18.5061 17.1682 18.1261 17.6472 17.6472C18.1261 17.1682 18.5061 16.5996 18.7653 15.9738C19.0245 15.3481 19.1579 14.6773 19.1579 14C19.1579 13.3227 19.0245 12.6519 18.7653 12.0262C18.5061 11.4004 18.1261 10.8318 17.6472 10.3528C17.1682 9.87386 16.5996 9.49393 15.9738 9.23473C15.3481 8.97552 14.6773 8.8421 14 8.8421Z" fill="white"/>
</svg>
