<svg width="28" height="28" viewBox="0 0 28 28" fill="none" xmlns="http://www.w3.org/2000/svg">
<path d="M23.9045 4.10082C20.9863 1.18314 17.0057 -0.289004 12.826 0.0471667C7.20678 0.498195 2.28142 4.40337 0.63309 9.7905C-0.544288 13.6397 -0.0495094 17.6583 1.86794 20.978L0.0514088 27.0052C-0.122395 27.5837 0.406024 28.1286 0.990508 27.9731L7.3035 26.2825C9.34849 27.3974 11.65 27.9843 13.9935 27.9857H13.9991C19.879 27.9857 25.3118 24.3915 27.1914 18.8237C29.0219 13.3945 27.6679 7.86593 23.9045 4.10082ZM20.8504 18.9848C20.5588 19.8014 19.1305 20.5886 18.4886 20.646C17.8466 20.7048 17.2453 20.936 14.2907 19.772C10.7347 18.3713 8.48929 14.728 8.31548 14.4955C8.14028 14.2616 6.88721 12.6003 6.88721 10.8803C6.88721 9.16018 7.79127 8.31416 8.11224 7.96538C8.43322 7.6152 8.81166 7.52836 9.04574 7.52836C9.27841 7.52836 9.51248 7.52836 9.71572 7.53676C9.96521 7.54657 10.2413 7.55917 10.5034 8.14047C10.8146 8.83242 11.4944 10.5609 11.5813 10.736C11.6682 10.9111 11.7271 11.1156 11.6107 11.3481C11.4944 11.5806 11.4355 11.7263 11.2617 11.9308C11.0865 12.1353 10.8945 12.386 10.7375 12.5429C10.5623 12.7166 10.3801 12.9071 10.5833 13.2559C10.788 13.606 11.4888 14.7504 12.5288 15.6763C13.866 16.8669 14.9915 17.2353 15.3419 17.4118C15.6923 17.5869 15.8956 17.5574 16.1002 17.3235C16.3048 17.091 16.9748 16.3038 17.2075 15.9536C17.4402 15.6035 17.6742 15.6623 17.9952 15.7785C18.3162 15.8948 20.036 16.7408 20.385 16.9159C20.7354 17.091 20.9681 17.1778 21.055 17.3235C21.1419 17.4678 21.1419 18.1682 20.8504 18.9848Z" fill="white"/>
</svg>
